<?xml version="1.0" encoding="UTF-8" standalone="no"?>
<svg
   xmlns:dc="http://purl.org/dc/elements/1.1/"
   xmlns:cc="http://creativecommons.org/ns#"
   xmlns:rdf="http://www.w3.org/1999/02/22-rdf-syntax-ns#"
   xmlns:svg="http://www.w3.org/2000/svg"
   xmlns="http://www.w3.org/2000/svg"
   version="1.1"
   id="svg2"
   viewBox="0 0 336.15431 309.78515"
   height="87.428253mm"
   width="94.870216mm">
  <defs
     id="defs4" />
  <metadata
     id="metadata7">
    <rdf:RDF>
      <cc:Work
         rdf:about="">
        <dc:format>image/svg+xml</dc:format>
        <dc:type
           rdf:resource="http://purl.org/dc/dcmitype/StillImage" />
        <dc:title></dc:title>
      </cc:Work>
    </rdf:RDF>
  </metadata>
  <g
     transform="translate(-120.06098,-121.67715)"
     id="layer1">
    <path
       id="path3577"
       transform="translate(122.60395,121.67715)"
       d="m 153.05469,0 c -0.9385,0 -2.46907,1.3021444 -3.88281,3.3027344 -4.05311,5.73559 -4.39976,6.0763375 -5.67774,5.5859375 -0.68164,-0.26157 -1.3409,-1.5753138 -1.47266,-2.9335938 -0.26255,-2.70664 -0.47013,-2.7698487 -13.0996,-4.0742187 -6.22508,-0.64292 -9.09967,0.5844468 -12.14454,5.1855468 -2.47173,3.7350398 -4.70078,4.9980288 -10.10937,5.7304688 -3.67246,0.49733 -4.07851,0.752529 -4.54297,2.867187 -0.37442,1.704732 -1.63538,3.043304 -4.746094,5.033204 -2.33026,1.49064 -4.535,3.474866 -4.90039,4.410156 -1.28229,3.28226 -5.925645,6.890051 -9.796875,7.613281 -2.0211,0.37758 -4.174157,1.102295 -4.785157,1.609375 -1.79405,1.48893 -3.856623,6.133908 -4.839843,10.898438 -0.77656,3.76307 -1.320281,4.684467 -3.587891,6.085937 -3.36117,2.07731 -4.94343,4.301658 -4.4375,6.236328 0.61469,2.35057 -1.77119,5.25367 -4.78125,5.81836 -3.45128,0.64746 -5.137233,2.570978 -5.658203,6.455078 -0.32573,2.42854 -0.05225,3.581644 1.232422,5.214843 2.31132,2.938362 2.061876,5.130856 -0.996094,8.791016 -3.17685,3.80218 -3.980514,8.167514 -3.177734,17.236332 0.63627,7.18793 0.01788,8.49609 -4.015625,8.49609 -3.74147,0 -8.420479,2.58617 -9.417969,5.20508 -0.45623,1.1978 -1.058101,3.57566 -1.337891,5.28515 -1.16223,7.10111 -4.972093,12.04493 -9.283203,12.04493 -1.83594,0 -1.483586,3.37799 0.808594,7.76172 l 2.011719,3.84765 -1.636719,2.29688 c -3.65217,5.12899 -4.683372,8.70035 -4.701172,16.27539 -0.01514,6.44175 -0.181751,7.30397 -1.476563,7.64258 -2.13818,0.55915 -3.051618,3.21372 -3.605468,10.48242 -0.48936,6.4222 -0.467922,6.52511 2.673828,12.9414 5.69556,11.63185 3.972324,14.13603 -8.410156,12.21289 -5.1084108,-0.79339 -4.887791,-0.002 1.068359,3.8086 2.70213,1.72852 4.720444,2.50686 5.777344,2.23047 3.7305,-0.97555 0.467373,6.90035 -4.060547,9.80078 l -2.47461,1.58594 3.664063,0.0137 c 4.94476,0.0177 5.78781,1.53012 4.5,8.07812 -1.28256,6.52131 -1.645614,7.00957 -7.052734,9.50586 l -4.7480472,2.19336 1.7089842,1.38477 c 1.16174,0.94071 3.03738,1.38476 5.84375,1.38476 4.22777,0 6.574219,1.27361 6.574219,3.57031 0,0.62111 0.88351,1.46658 1.962891,1.87696 2.33235,0.88675 2.445373,1.1865 2.996093,7.98242 0.36877,4.55068 0.218821,5.48236 -1.099609,6.80078 -2.06874,2.06878 -7.304825,2.02553 -10.771484,-0.0879 -1.89361,-1.15443 -2.796346,-1.35378 -3.197266,-0.70508 -0.30723,0.49711 -0.394438,4.10847 -0.19336,8.02344 0.201081,3.91497 0.417116,8.16711 0.478516,9.44922 0.09781,2.04065 -0.131491,2.30856 -1.832031,2.1543 -1.36946,-0.12424 -0.795561,0.38858 1.943359,1.73828 6.98191,3.44058 9.653678,2.2343 6.173828,-2.78711 -2.2621,-3.26422 -2.047741,-4.77593 0.455078,-3.21289 2.385931,1.49004 3.083985,1.12641 3.083985,-1.60547 0,-2.77129 1.999119,-6.29885 3.162109,-5.58008 0.39813,0.24606 0.722657,3.16831 0.722656,6.49414 0,3.32583 0.524706,7.76339 1.166016,9.86133 1.15181,3.76798 1.142046,3.83446 -0.777344,5.39844 -1.06868,0.8708 -1.941406,1.94696 -1.941406,2.39062 0,0.44367 -0.78841,1.52075 -1.75,2.39453 -1.36806,1.24314 -3.255897,1.69932 -8.679687,2.09375 -3.81231,0.27723 -7.3081216,0.79822 -7.7695316,1.1582 -0.46142,0.35999 -2.2098556,0.86521 -3.8847656,1.12305 -1.6749001,0.25785 -3.33111755,0.91744 -3.67968755,1.4668 -0.17487464,0.27561 -0.32367112,1.26678 -0.4609375,2.49805 -0.93022585,0.53625 -1.82824165,1.12774 -2.71093755,1.74414 l 336.1542988,0 c -3.20747,-2.95608 -6.66796,-5.85615 -9.23633,-8.72071 0.26171,-1.51685 0.39929,-3.10671 0.40039,-4.77734 0,-0.25007 -1.01141,-1.42172 -2.24805,-2.60352 -1.46268,-1.39782 -3.77149,-2.4644 -6.60546,-3.05273 -2.39603,-0.49741 -4.35547,-1.22988 -4.35547,-1.62695 0,-0.39707 -1.13643,-0.72838 -2.52539,-0.73438 -2.94301,-0.0137 -8.78636,-1.63996 -9.80664,-2.73047 -0.38751,-0.41415 -0.93332,-1.51233 -1.2129,-2.43945 -0.38472,-1.27576 -0.11931,-1.80826 1.0879,-2.19141 1.96728,-0.62439 4.19428,-4.70227 3.35546,-6.14453 -0.75353,-1.29564 -4.72792,-4.61654 -6.82812,-5.70508 -0.85475,-0.44302 -3.51462,-1.20849 -5.91016,-1.70117 -4.34021,-0.89263 -8.12967,-3.37509 -7.27148,-4.76367 0.24838,-0.4019 0.76817,-0.73047 1.1543,-0.73047 0.38611,0 2.60864,-0.71388 4.93945,-1.58594 4.98507,-1.86515 5.92187,-3.65198 5.92187,-11.28906 0,-4.62611 -0.15576,-5.03338 -3.10742,-8.10547 -1.70949,-1.77923 -3.1571,-3.81822 -3.2168,-4.53125 -0.32966,-3.93486 0.52951,-8.0032 2.5254,-11.95703 2.79155,-5.53004 2.87899,-7.839 0.34374,-8.99414 -1.23423,-0.56235 -2.23488,-1.98339 -2.85546,-4.05469 -0.52562,-1.75436 -1.68197,-3.57097 -2.56836,-4.03711 -2.4396,-1.28296 -2.74953,-2.12844 -2.79492,-7.60937 -0.0399,-4.82408 -0.15366,-5.12118 -2.53711,-6.61719 -2.54167,-1.59532 -3.87083,-5.0162 -1.9668,-5.0625 0.56394,-0.0137 2.44959,-2.25035 4.18945,-4.96875 2.80301,-4.3795 3.32275,-5.96157 4.56641,-13.89453 1.65401,-10.5504 1.29517,-13.33915 -2.25781,-17.5918 -1.4466,-1.73146 -2.84927,-4.10958 -3.11719,-5.28515 -0.56313,-2.47086 -1.77138,-4.124 -3.88086,-5.30274 -1.56504,-0.87453 -2.2917,-2.64058 -3.125,-7.60547 -0.34894,-2.079 -0.9742,-3.12439 -2.03711,-3.40234 -2.22546,-0.58197 -3.80274,-4.20494 -3.80274,-8.73633 10e-6,-2.17182 -0.49661,-5.13732 -1.10351,-6.58984 -1.09867,-2.62953 -1.09466,-2.64173 1.00391,-2.58203 2.3916,0.068 5.11692,-1.17716 7.67578,-3.50782 2.32412,-2.11686 2.21303,-3.16068 -0.27149,-2.53711 -2.97038,0.74552 -7.1616,-0.91078 -8.38867,-3.3164 -0.58133,-1.13968 -1.68211,-4.994437 -2.44726,-8.566408 -0.80816,-3.77276 -2.20778,-7.680248 -3.33985,-9.324218 -2.42599,-3.52303 -3.92815,-7.545322 -3.97265,-10.638672 -0.0292,-2.02728 -0.45593,-2.516619 -2.94922,-3.386719 -6.93948,-2.4217 -12.67447,-7.106089 -7.23828,-5.912109 1.72532,0.37895 2.67677,0.106426 3.90429,-1.121094 1.9247,-1.9247 1.38276,-3.419977 -2.38672,-6.591797 -1.96672,-1.65488 -2.93567,-1.964314 -4.875,-1.552734 -1.33095,0.28247 -2.97177,1.00025 -3.64648,1.59375 -3.06315,2.69443 -4.01873,0.660084 -2.94141,-6.259766 0.76749,-4.92975 0.71818,-5.234637 -1.45312,-8.791015 -1.3245,-2.1694 -3.34862,-4.223038 -4.91992,-4.992188 -5.52581,-2.70486 -12.24062,-5.296875 -13.71875,-5.296875 -1.31874,0 -1.64818,-0.829383 -2.36524,-5.939453 C 214.19296,17.357012 213.4415,16.78305 203.71875,17 194.81679,17.19863 192.01758,16.314453 191.375,13.101562 190.76907,10.071893 189.09991,8.85742 183.59375,7.4375 c -4.46742,-1.15209 -5.00797,-1.1452725 -7.58984,0.085937 -2.32388,1.10818 -3.20278,1.1740375 -5.34766,0.3984375 -1.41132,-0.51034 -3.86936,-0.9277344 -5.46289,-0.9277344 -3.05839,0 -7.48242,-1.8503062 -7.48242,-3.1289062 C 157.71094,2.5344544 154.65819,0 153.05469,0 Z M 31.542969,286.3457 c 0.332048,0.0345 0.79769,0.43437 1.449219,1.1543 1.36113,1.50438 1.361186,1.6135 0.0039,3.11328 -1.95841,2.16402 -2.341753,1.96373 -2.251953,-1.17773 0.06257,-2.18786 0.245414,-3.14727 0.798828,-3.08985 z"
       style="fill:#999999" />
  </g>
</svg>
